<svg xmlns="http://www.w3.org/2000/svg" xmlns:xlink="http://www.w3.org/1999/xlink" preserveAspectRatio="xMidYMid" width="12" height="7" viewBox="0 0 12 7"><path fill="#706f73" d="M6.201,6.904 C6.201,6.904 11.906,1.069 11.906,1.069 C12.020,0.953 12.020,0.764 11.906,0.648 C11.906,0.648 11.357,0.087 11.357,0.087 C11.303,0.031 11.229,-0.000 11.152,-0.000 C11.075,-0.000 11.001,0.031 10.946,0.087 C10.946,0.087 5.996,5.151 5.996,5.151 C5.996,5.151 1.045,0.087 1.045,0.087 C0.991,0.031 0.917,-0.000 0.839,-0.000 C0.762,-0.000 0.688,0.031 0.634,0.087 C0.634,0.087 0.085,0.648 0.085,0.648 C0.028,0.706 -0.000,0.783 -0.000,0.859 C-0.000,0.935 0.028,1.011 0.085,1.069 C0.085,1.069 5.790,6.904 5.790,6.904 C5.904,7.020 6.088,7.020 6.201,6.904 Z"/>
</svg>
