<svg xmlns="http://www.w3.org/2000/svg" xmlns:xlink="http://www.w3.org/1999/xlink" preserveAspectRatio="xMidYMid" width="30" height="30" viewBox="0 0 30 30"><path fill="#FFF" d="M15.161,12.903 C15.161,12.903 14.516,12.903 14.516,12.903 C13.625,12.903 12.903,13.625 12.903,14.516 C12.903,14.516 12.903,15.161 12.903,15.161 C12.903,16.052 13.625,16.774 14.516,16.774 C14.516,16.774 15.161,16.774 15.161,16.774 C16.052,16.774 16.774,16.052 16.774,15.161 C16.774,15.161 16.774,14.516 16.774,14.516 C16.774,13.625 16.052,12.903 15.161,12.903 ZM9.355,12.903 C9.355,12.903 8.710,12.903 8.710,12.903 C7.819,12.903 7.097,13.625 7.097,14.516 C7.097,14.516 7.097,15.161 7.097,15.161 C7.097,16.052 7.819,16.774 8.710,16.774 C8.710,16.774 9.355,16.774 9.355,16.774 C10.246,16.774 10.968,16.052 10.968,15.161 C10.968,15.161 10.968,14.516 10.968,14.516 C10.968,13.625 10.246,12.903 9.355,12.903 ZM14.839,-0.000 C6.643,-0.000 -0.000,6.644 -0.000,14.839 C-0.000,23.034 6.643,29.677 14.839,29.677 C23.034,29.677 29.677,23.034 29.677,14.839 C29.677,6.644 23.034,-0.000 14.839,-0.000 ZM14.839,27.097 C8.069,27.097 2.581,21.609 2.581,14.839 C2.581,8.069 8.069,2.581 14.839,2.581 C21.609,2.581 27.097,8.069 27.097,14.839 C27.097,21.609 21.609,27.097 14.839,27.097 ZM20.968,12.903 C20.968,12.903 20.323,12.903 20.323,12.903 C19.432,12.903 18.710,13.625 18.710,14.516 C18.710,14.516 18.710,15.161 18.710,15.161 C18.710,16.052 19.432,16.774 20.323,16.774 C20.323,16.774 20.968,16.774 20.968,16.774 C21.859,16.774 22.581,16.052 22.581,15.161 C22.581,15.161 22.581,14.516 22.581,14.516 C22.581,13.625 21.859,12.903 20.968,12.903 Z"/>
</svg>
