<svg xmlns="http://www.w3.org/2000/svg" xmlns:xlink="http://www.w3.org/1999/xlink" preserveAspectRatio="xMidYMid" width="20" height="15" viewBox="0 0 20 15">
<path fill="#e53713" d="M17.488,2.488 C17.488,2.488 17.488,-0.012 17.488,-0.012 C17.488,-0.012 -0.012,-0.012 -0.012,-0.012 C-0.012,-0.012 -0.012,13.738 -0.012,13.738 C-0.012,14.429 0.548,14.988 1.238,14.988 C1.238,14.988 18.113,14.988 18.113,14.988 C19.149,14.988 19.988,14.149 19.988,13.113 C19.988,13.113 19.988,2.488 19.988,2.488 C19.988,2.488 17.488,2.488 17.488,2.488 ZM16.238,13.738 C16.238,13.738 1.238,13.738 1.238,13.738 C1.238,13.738 1.238,1.238 1.238,1.238 C1.238,1.238 16.238,1.238 16.238,1.238 C16.238,1.238 16.238,13.738 16.238,13.738 ZM2.488,3.738 C2.488,3.738 14.988,3.738 14.988,3.738 C14.988,3.738 14.988,4.988 14.988,4.988 C14.988,4.988 2.488,4.988 2.488,4.988 C2.488,4.988 2.488,3.738 2.488,3.738 ZM9.988,6.238 C9.988,6.238 14.988,6.238 14.988,6.238 C14.988,6.238 14.988,7.488 14.988,7.488 C14.988,7.488 9.988,7.488 9.988,7.488 C9.988,7.488 9.988,6.238 9.988,6.238 ZM9.988,8.738 C9.988,8.738 14.988,8.738 14.988,8.738 C14.988,8.738 14.988,9.988 14.988,9.988 C14.988,9.988 9.988,9.988 9.988,9.988 C9.988,9.988 9.988,8.738 9.988,8.738 ZM9.988,11.238 C9.988,11.238 13.738,11.238 13.738,11.238 C13.738,11.238 13.738,12.488 13.738,12.488 C13.738,12.488 9.988,12.488 9.988,12.488 C9.988,12.488 9.988,11.238 9.988,11.238 ZM2.488,6.238 C2.488,6.238 8.738,6.238 8.738,6.238 C8.738,6.238 8.738,12.488 8.738,12.488 C8.738,12.488 2.488,12.488 2.488,12.488 C2.488,12.488 2.488,6.238 2.488,6.238 Z" fill-rule="evenodd"/>
</svg>
