<svg xmlns="http://www.w3.org/2000/svg" xmlns:xlink="http://www.w3.org/1999/xlink" preserveAspectRatio="xMidYMid" width="25" height="24" viewBox="0 0 25 24"><path fill="#f0d748" d="M24.974,9.047 C24.904,8.837 24.699,8.454 24.042,8.351 C24.042,8.351 16.701,7.271 16.701,7.271 C16.701,7.271 13.496,0.731 13.496,0.731 C13.187,0.106 12.807,-0.000 12.497,-0.000 C11.878,-0.000 11.533,0.625 11.463,0.731 C11.463,0.731 8.258,7.271 8.258,7.271 C8.258,7.271 1.019,8.315 1.019,8.315 C0.538,8.386 0.158,8.663 0.056,9.047 C-0.082,9.465 0.091,9.881 0.502,10.300 C0.502,10.300 5.673,15.345 5.673,15.345 C5.673,15.345 4.467,22.549 4.467,22.549 C4.432,22.723 4.329,23.280 4.674,23.664 C4.949,24.012 5.434,24.082 5.951,23.838 C5.951,23.838 5.986,23.838 5.986,23.802 C5.986,23.802 12.500,20.323 12.500,20.323 C12.500,20.323 19.015,23.802 19.015,23.802 C19.257,23.941 19.497,24.012 19.704,24.012 C19.979,24.012 20.186,23.909 20.358,23.735 C20.496,23.596 20.633,23.316 20.566,22.794 C20.566,22.794 19.321,15.345 19.321,15.345 C19.321,15.345 24.594,10.161 24.594,10.161 C25.041,9.707 25.041,9.327 24.974,9.047 ZM18.182,14.685 C18.044,14.823 17.974,15.033 18.009,15.242 C18.009,15.242 19.251,22.478 19.251,22.478 C19.251,22.478 12.804,19.069 12.804,19.069 C12.631,18.966 12.389,18.966 12.216,19.069 C12.216,19.069 5.769,22.478 5.769,22.478 C5.769,22.478 7.010,15.242 7.010,15.242 C7.046,15.033 6.975,14.823 6.838,14.685 C6.838,14.685 1.600,9.569 1.600,9.569 C1.600,9.569 8.804,8.525 8.804,8.525 C9.012,8.489 9.184,8.351 9.286,8.177 C9.286,8.177 12.491,1.601 12.491,1.601 C12.491,1.601 15.695,8.177 15.695,8.177 C15.797,8.351 15.970,8.489 16.177,8.525 C16.177,8.525 23.381,9.569 23.381,9.569 C23.381,9.569 18.182,14.685 18.182,14.685 Z"/>
</svg>
