<svg viewBox="0 0 100 100" xmlns="http://www.w3.org/2000/svg"><defs> <style> .cls-2 { fill: #000000; } </style> </defs><symbol viewBox="0 0 28 28" id="ico_busca"><title>ico_busca</title> <path d="M27.314,24.005 C27.314,24.005 21.231,17.922 21.231,17.922 C21.199,17.890 21.161,17.867 21.127,17.837 C22.324,16.022 23.022,13.848 23.022,11.511 C23.022,5.154 17.869,-0.000 11.511,-0.000 C5.154,-0.000 -0.000,5.154 -0.000,11.511 C-0.000,17.869 5.154,23.022 11.511,23.022 C13.848,23.022 16.021,22.324 17.837,21.127 C17.867,21.161 17.890,21.199 17.922,21.231 C17.922,21.231 24.005,27.314 24.005,27.314 C24.918,28.227 26.400,28.227 27.314,27.314 C28.227,26.400 28.227,24.919 27.314,24.005 ZM11.511,19.032 C7.358,19.032 3.990,15.665 3.990,11.511 C3.990,7.358 7.358,3.990 11.511,3.990 C15.665,3.990 19.032,7.358 19.032,11.511 C19.032,15.665 15.665,19.032 11.511,19.032 Z"/> </symbol><symbol viewBox="0 0 50 50" id="ico_curtiu"><title>ico_curtiu</title> <path d="M42.544,7.304 C32.818,-2.422 16.995,-2.422 7.272,7.301 C-2.453,17.026 -2.452,32.849 7.273,42.575 C16.995,52.298 32.818,52.298 42.543,42.573 C52.267,32.849 52.266,17.027 42.544,7.304 ZM39.822,39.853 C31.598,48.077 18.216,48.078 9.992,39.854 C1.767,31.629 1.768,18.246 9.992,10.022 C18.216,1.798 31.598,1.798 39.823,10.023 C48.047,18.247 48.046,31.630 39.822,39.853 ZM15.604,18.188 C15.604,16.579 16.910,15.273 18.519,15.273 C20.129,15.273 21.434,16.578 21.434,18.188 C21.434,19.798 20.129,21.104 18.519,21.104 C16.910,21.104 15.604,19.798 15.604,18.188 ZM28.822,18.188 C28.822,16.579 30.128,15.273 31.738,15.273 C33.347,15.273 34.653,16.578 34.653,18.188 C34.653,19.798 33.348,21.104 31.738,21.104 C30.128,21.104 28.822,19.798 28.822,18.188 ZM35.714,30.127 C33.907,34.305 29.676,37.004 24.935,37.004 C20.093,37.004 15.837,34.291 14.093,30.093 C13.794,29.374 14.135,28.548 14.855,28.249 C15.031,28.176 15.215,28.141 15.395,28.141 C15.948,28.141 16.473,28.468 16.698,29.011 C18.003,32.154 21.236,34.184 24.935,34.184 C28.550,34.184 31.765,32.152 33.124,29.008 C33.434,28.292 34.264,27.963 34.979,28.273 C35.693,28.582 36.023,29.412 35.714,30.127 Z"/> </symbol><symbol viewBox="0 0 30 30" id="ico_facebook"><title>ico_facebook</title><path d="M30.337,5.057 C30.337,2.400 27.938,0.000 25.281,0.000 C25.281,0.000 5.056,0.000 5.056,0.000 C2.399,0.000 0.000,2.400 0.000,5.057 C0.000,5.057 0.000,25.281 0.000,25.281 C0.000,27.937 2.399,30.337 5.057,30.337 C5.057,30.337 15.169,30.337 15.169,30.337 C15.169,30.337 15.169,18.876 15.169,18.876 C15.169,18.876 11.461,18.876 11.461,18.876 C11.461,18.876 11.461,13.820 11.461,13.820 C11.461,13.820 15.169,13.820 15.169,13.820 C15.169,13.820 15.169,11.850 15.169,11.850 C15.169,8.453 17.720,5.393 20.857,5.393 C20.857,5.393 24.944,5.393 24.944,5.393 C24.944,5.393 24.944,10.449 24.944,10.449 C24.944,10.449 20.857,10.449 20.857,10.449 C20.409,10.449 19.888,10.992 19.888,11.806 C19.888,11.806 19.888,13.820 19.888,13.820 C19.888,13.820 24.944,13.820 24.944,13.820 C24.944,13.820 24.944,18.876 24.944,18.876 C24.944,18.876 19.888,18.876 19.888,18.876 C19.888,18.876 19.888,30.337 19.888,30.337 C19.888,30.337 25.281,30.337 25.281,30.337 C27.938,30.337 30.337,27.937 30.337,25.281 C30.337,25.281 30.337,5.057 30.337,5.057 Z"/> </symbol><symbol viewBox="0 0 30 30" id="ico_instagram"><title>ico_instagram</title> <path d="M27.000,-0.000 C27.000,-0.000 3.000,-0.000 3.000,-0.000 C1.350,-0.000 -0.000,1.350 -0.000,3.000 C-0.000,3.000 -0.000,27.000 -0.000,27.000 C-0.000,28.650 1.350,30.000 3.000,30.000 C3.000,30.000 27.000,30.000 27.000,30.000 C28.650,30.000 30.000,28.650 30.000,27.000 C30.000,27.000 30.000,3.000 30.000,3.000 C30.000,1.350 28.650,-0.000 27.000,-0.000 ZM15.000,9.000 C18.300,9.000 21.000,11.700 21.000,15.000 C21.000,18.300 18.300,21.000 15.000,21.000 C11.700,21.000 9.000,18.300 9.000,15.000 C9.000,11.700 11.700,9.000 15.000,9.000 ZM3.750,27.000 C3.300,27.000 3.000,26.700 3.000,26.250 C3.000,26.250 3.000,13.500 3.000,13.500 C3.000,13.500 6.150,13.500 6.150,13.500 C6.000,13.950 6.000,14.550 6.000,15.000 C6.000,19.950 10.050,24.000 15.000,24.000 C19.950,24.000 24.000,19.950 24.000,15.000 C24.000,14.550 24.000,13.950 23.850,13.500 C23.850,13.500 27.000,13.500 27.000,13.500 C27.000,13.500 27.000,26.250 27.000,26.250 C27.000,26.700 26.700,27.000 26.250,27.000 C26.250,27.000 3.750,27.000 3.750,27.000 ZM27.000,6.750 C27.000,7.200 26.700,7.500 26.250,7.500 C26.250,7.500 23.250,7.500 23.250,7.500 C22.800,7.500 22.500,7.200 22.500,6.750 C22.500,6.750 22.500,3.750 22.500,3.750 C22.500,3.300 22.800,3.000 23.250,3.000 C23.250,3.000 26.250,3.000 26.250,3.000 C26.700,3.000 27.000,3.300 27.000,3.750 C27.000,3.750 27.000,6.750 27.000,6.750 Z" fill-rule="evenodd"/> </symbol><symbol viewBox="0 0 50 50" id="ico_naocurtiu"><title>ico_naocurtiu</title> <g> <path d="M42.544,7.304 C32.818,-2.422 16.995,-2.422 7.272,7.301 C-2.453,17.026 -2.452,32.849 7.273,42.575 C16.995,52.298 32.818,52.298 42.543,42.573 C52.267,32.849 52.266,17.027 42.544,7.304 ZM39.822,39.853 C31.598,48.077 18.216,48.078 9.992,39.854 C1.767,31.629 1.768,18.246 9.992,10.022 C18.216,1.798 31.598,1.798 39.823,10.023 C48.047,18.247 48.046,31.630 39.822,39.853 ZM15.604,18.188 C15.604,17.118 16.910,17.160 18.519,17.160 C20.129,17.160 21.434,17.117 21.434,18.188 C21.434,19.798 20.129,21.104 18.519,21.104 C16.910,21.104 15.604,19.798 15.604,18.188 ZM28.822,18.188 C28.822,16.579 30.128,15.273 31.738,15.273 C33.347,15.273 34.653,16.578 34.653,18.188 C34.653,19.798 33.348,21.104 31.738,21.104 C30.128,21.104 28.822,19.798 28.822,18.188 Z" id="ico_naocurtiu-path-1" class="cls-3" fill-rule="evenodd"/> <path d="M35.714,34.842 C33.907,30.664 29.676,27.965 24.935,27.965 C20.093,27.965 15.837,30.678 14.093,34.877 C13.794,35.596 14.135,36.421 14.855,36.720 C15.031,36.793 15.215,36.828 15.395,36.828 C15.948,36.828 16.473,36.501 16.698,35.958 C18.003,32.816 21.236,30.785 24.935,30.785 C28.550,30.785 31.765,32.817 33.124,35.962 C33.434,36.677 34.264,37.006 34.979,36.697 C35.693,36.387 36.023,35.557 35.714,34.842 Z"/></g> </symbol><symbol viewBox="0 0 25 22" id="ico_news"><title>ico_news</title>  <path d="M22.172,22.000 C22.172,22.000 2.828,22.000 2.828,22.000 C1.269,22.000 -0.000,20.735 -0.000,19.179 C-0.000,19.179 -0.000,1.128 -0.000,1.128 C-0.000,0.506 0.507,-0.000 1.131,-0.000 C1.131,-0.000 21.041,-0.000 21.041,-0.000 C21.664,-0.000 22.172,0.506 22.172,1.128 C22.172,1.128 22.172,2.821 22.172,2.821 C22.172,2.821 23.869,2.821 23.869,2.821 C24.493,2.821 25.000,3.327 25.000,3.949 C25.000,3.949 25.000,19.179 25.000,19.179 C25.000,20.735 23.731,22.000 22.172,22.000 ZM23.869,3.949 C23.869,3.949 22.172,3.949 22.172,3.949 C22.172,3.949 22.172,18.333 22.172,18.333 C22.172,18.489 22.299,18.615 22.455,18.615 C22.767,18.615 23.020,18.868 23.020,19.179 C23.020,19.491 22.767,19.744 22.455,19.744 C21.675,19.744 21.041,19.111 21.041,18.333 C21.041,18.333 21.041,1.128 21.041,1.128 C21.041,1.128 1.131,1.128 1.131,1.128 C1.131,1.128 1.131,19.179 1.131,19.179 C1.131,20.113 1.892,20.872 2.828,20.872 C2.828,20.872 22.172,20.872 22.172,20.872 C23.108,20.872 23.869,20.113 23.869,19.179 C23.869,19.179 23.869,3.949 23.869,3.949 ZM18.213,18.615 C18.213,18.615 12.500,18.615 12.500,18.615 C12.188,18.615 11.934,18.363 11.934,18.051 C11.934,17.740 12.188,17.487 12.500,17.487 C12.500,17.487 18.213,17.487 18.213,17.487 C18.525,17.487 18.778,17.740 18.778,18.051 C18.778,18.363 18.525,18.615 18.213,18.615 ZM18.213,15.795 C18.213,15.795 12.500,15.795 12.500,15.795 C12.188,15.795 11.934,15.542 11.934,15.231 C11.934,14.919 12.188,14.667 12.500,14.667 C12.500,14.667 18.213,14.667 18.213,14.667 C18.525,14.667 18.778,14.919 18.778,15.231 C18.778,15.542 18.525,15.795 18.213,15.795 ZM18.213,12.974 C18.213,12.974 12.500,12.974 12.500,12.974 C12.188,12.974 11.934,12.722 11.934,12.410 C11.934,12.099 12.188,11.846 12.500,11.846 C12.500,11.846 18.213,11.846 18.213,11.846 C18.525,11.846 18.778,12.099 18.778,12.410 C18.778,12.722 18.525,12.974 18.213,12.974 ZM18.213,10.154 C18.213,10.154 12.500,10.154 12.500,10.154 C12.188,10.154 11.934,9.901 11.934,9.590 C11.934,9.278 12.188,9.026 12.500,9.026 C12.500,9.026 18.213,9.026 18.213,9.026 C18.525,9.026 18.778,9.278 18.778,9.590 C18.778,9.901 18.525,10.154 18.213,10.154 ZM18.213,7.333 C18.213,7.333 12.500,7.333 12.500,7.333 C12.188,7.333 11.934,7.081 11.934,6.769 C11.934,6.458 12.188,6.205 12.500,6.205 C12.500,6.205 18.213,6.205 18.213,6.205 C18.525,6.205 18.778,6.458 18.778,6.769 C18.778,7.081 18.525,7.333 18.213,7.333 ZM18.213,4.513 C18.213,4.513 3.959,4.513 3.959,4.513 C3.647,4.513 3.394,4.260 3.394,3.949 C3.394,3.637 3.647,3.385 3.959,3.385 C3.959,3.385 18.213,3.385 18.213,3.385 C18.525,3.385 18.778,3.637 18.778,3.949 C18.778,4.260 18.525,4.513 18.213,4.513 ZM3.959,6.205 C3.959,6.205 9.672,6.205 9.672,6.205 C9.984,6.205 10.238,6.458 10.238,6.769 C10.238,6.769 10.238,12.467 10.238,12.467 C10.238,12.778 9.984,13.031 9.672,13.031 C9.672,13.031 3.959,13.031 3.959,13.031 C3.647,13.031 3.394,12.778 3.394,12.467 C3.394,12.467 3.394,6.769 3.394,6.769 C3.394,6.458 3.647,6.205 3.959,6.205 ZM4.525,11.903 C4.525,11.903 9.106,11.903 9.106,11.903 C9.106,11.903 9.106,7.333 9.106,7.333 C9.106,7.333 4.525,7.333 4.525,7.333 C4.525,7.333 4.525,11.903 4.525,11.903 ZM3.959,14.667 C3.959,14.667 9.672,14.667 9.672,14.667 C9.984,14.667 10.238,14.919 10.238,15.231 C10.238,15.542 9.984,15.795 9.672,15.795 C9.672,15.795 3.959,15.795 3.959,15.795 C3.647,15.795 3.394,15.542 3.394,15.231 C3.394,14.919 3.647,14.667 3.959,14.667 ZM3.959,17.487 C3.959,17.487 9.672,17.487 9.672,17.487 C9.984,17.487 10.238,17.740 10.238,18.051 C10.238,18.363 9.984,18.615 9.672,18.615 C9.672,18.615 3.959,18.615 3.959,18.615 C3.647,18.615 3.394,18.363 3.394,18.051 C3.394,17.740 3.647,17.487 3.959,17.487 Z" id="ico_news-path-1" class="cls-2" fill-rule="evenodd"/> </symbol><symbol viewBox="0 0 16 16" id="ico_relogio"><title>ico_relogio</title><path d="M8.000,16.000 C3.600,16.000 -0.000,12.400 -0.000,8.000 C-0.000,3.600 3.600,-0.000 8.000,-0.000 C12.400,-0.000 16.000,3.600 16.000,8.000 C16.000,12.400 12.400,16.000 8.000,16.000 ZM8.000,1.600 C4.480,1.600 1.600,4.480 1.600,8.000 C1.600,11.520 4.480,14.400 8.000,14.400 C11.520,14.400 14.400,11.520 14.400,8.000 C14.400,4.480 11.520,1.600 8.000,1.600 ZM7.200,8.800 C7.200,8.800 7.200,4.000 7.200,4.000 C7.200,4.000 8.400,4.000 8.400,4.000 C8.400,4.000 8.400,8.160 8.400,8.160 C8.400,8.160 12.000,10.320 12.000,10.320 C12.000,10.320 11.360,11.360 11.360,11.360 C11.360,11.360 7.200,8.800 7.200,8.800 Z"/> </symbol><symbol viewBox="0 0 17 30" id="ico_setaleft"><title>ico_setaleft</title><path d="M18.014,2.008 C18.014,2.008 15.993,-0.003 15.993,-0.003 C15.993,-0.003 0.015,14.999 0.015,14.999 C0.015,14.999 15.993,30.002 15.993,30.002 C15.993,30.002 18.014,27.991 18.014,27.991 C18.014,27.991 4.179,14.999 4.179,14.999 C4.179,14.999 18.014,2.008 18.014,2.008 Z" fill-rule="evenodd"/> </symbol><symbol viewBox="0 0 18 30" id="ico_setaright"><title>ico_setaright</title> <path d="M-0.514,2.008 C-0.514,2.008 1.507,-0.003 1.507,-0.003 C1.507,-0.003 17.485,14.999 17.485,14.999 C17.485,14.999 1.507,30.002 1.507,30.002 C1.507,30.002 -0.514,27.991 -0.514,27.991 C-0.514,27.991 13.321,14.999 13.321,14.999 C13.321,14.999 -0.514,2.008 -0.514,2.008 Z" fill-rule="evenodd"/> </symbol><symbol viewBox="0 0 30 30" id="ico_twitter"><title>ico_twitter</title><path d="M28.365,1.635 C27.264,0.534 25.937,-0.017 24.386,-0.017 C24.386,-0.017 5.614,-0.017 5.614,-0.017 C4.063,-0.017 2.737,0.534 1.635,1.635 C0.534,2.736 -0.017,4.063 -0.017,5.614 C-0.017,5.614 -0.017,24.386 -0.017,24.386 C-0.017,25.937 0.534,27.263 1.635,28.365 C2.737,29.466 4.063,30.017 5.614,30.017 C5.614,30.017 24.386,30.017 24.386,30.017 C25.937,30.017 27.264,29.466 28.365,28.365 C29.466,27.263 30.017,25.937 30.017,24.386 C30.017,24.386 30.017,5.614 30.017,5.614 C30.017,4.063 29.466,2.736 28.365,1.635 ZM22.958,11.539 C22.971,11.656 22.978,11.832 22.978,12.067 C22.978,13.162 22.818,14.260 22.499,15.362 C22.180,16.463 21.691,17.519 21.032,18.530 C20.374,19.540 19.589,20.433 18.676,21.208 C17.764,21.984 16.669,22.603 15.391,23.066 C14.114,23.529 12.745,23.760 11.285,23.760 C9.017,23.760 6.919,23.147 4.989,21.922 C5.302,21.961 5.628,21.981 5.967,21.981 C7.857,21.981 9.558,21.394 11.071,20.221 C10.184,20.208 9.392,19.934 8.695,19.400 C7.997,18.865 7.512,18.187 7.238,17.366 C7.577,17.418 7.831,17.444 8.000,17.444 C8.287,17.444 8.620,17.392 8.998,17.288 C8.046,17.105 7.244,16.633 6.593,15.870 C5.941,15.108 5.615,14.237 5.615,13.260 C5.615,13.260 5.615,13.221 5.615,13.221 C6.306,13.546 6.957,13.716 7.570,13.729 C6.384,12.934 5.791,11.793 5.791,10.307 C5.791,9.577 5.980,8.886 6.358,8.234 C7.387,9.499 8.639,10.509 10.112,11.265 C11.585,12.021 13.162,12.445 14.844,12.536 C14.779,12.289 14.746,11.976 14.746,11.598 C14.746,10.463 15.147,9.496 15.949,8.694 C16.750,7.892 17.718,7.491 18.852,7.491 C20.052,7.491 21.049,7.921 21.844,8.782 C22.744,8.612 23.618,8.280 24.465,7.785 C24.139,8.788 23.532,9.551 22.646,10.072 C23.493,9.955 24.282,9.733 25.012,9.407 C24.464,10.242 23.780,10.952 22.958,11.539 Z"/> </symbol><symbol viewBox="0 0 30 30" id="ico_whatsapp"><title>ico_whatsapp</title> <path d="M30.000,14.778 C30.000,22.939 23.333,29.556 15.107,29.556 C12.496,29.556 10.043,28.888 7.908,27.717 C7.908,27.717 -0.337,30.337 -0.337,30.337 C-0.337,30.337 2.351,22.408 2.351,22.408 C0.995,20.181 0.214,17.570 0.214,14.778 C0.214,6.616 6.882,0.000 15.107,0.000 C23.333,0.000 30.000,6.616 30.000,14.778 ZM15.107,2.353 C8.202,2.353 2.586,7.927 2.586,14.778 C2.586,17.497 3.472,20.014 4.971,22.062 C4.971,22.062 3.407,26.676 3.407,26.676 C3.407,26.676 8.219,25.147 8.219,25.147 C10.196,26.445 12.564,27.202 15.107,27.202 C22.011,27.202 27.628,21.629 27.628,14.778 C27.628,7.927 22.012,2.353 15.107,2.353 ZM22.628,18.181 C22.536,18.030 22.293,17.940 21.928,17.759 C21.563,17.577 19.767,16.701 19.433,16.580 C19.099,16.460 18.855,16.399 18.611,16.761 C18.368,17.124 17.669,17.940 17.455,18.181 C17.242,18.423 17.030,18.454 16.664,18.272 C16.300,18.091 15.123,17.708 13.729,16.475 C12.644,15.515 11.911,14.329 11.698,13.966 C11.485,13.604 11.676,13.408 11.858,13.228 C12.023,13.065 12.224,12.805 12.406,12.594 C12.589,12.382 12.650,12.231 12.771,11.989 C12.893,11.747 12.832,11.536 12.740,11.354 C12.649,11.173 11.918,9.391 11.614,8.666 C11.310,7.941 11.007,8.062 10.793,8.062 C10.581,8.062 10.337,8.031 10.093,8.031 C9.850,8.031 9.454,8.122 9.120,8.484 C8.785,8.847 7.843,9.723 7.843,11.505 C7.843,13.288 9.150,15.010 9.333,15.251 C9.515,15.493 11.858,19.269 15.569,20.720 C19.281,22.170 19.281,21.686 19.950,21.626 C20.619,21.565 22.110,20.750 22.415,19.904 C22.719,19.057 22.719,18.332 22.628,18.181 Z" fill-rule="evenodd"/> </symbol></svg>