<svg xmlns="http://www.w3.org/2000/svg" xmlns:xlink="http://www.w3.org/1999/xlink" preserveAspectRatio="xMidYMid" width="25" height="24" viewBox="0 0 25 24"><path fill="#f0d748" d="M23.914,8.179 C23.914,8.179 17.314,7.480 17.314,7.480 C16.880,7.440 16.505,7.161 16.327,6.742 C16.327,6.742 13.575,0.743 13.575,0.743 C13.181,-0.253 11.780,-0.253 11.385,0.743 C11.385,0.743 8.612,6.742 8.612,6.742 C8.454,7.161 8.059,7.440 7.625,7.480 C7.625,7.480 1.066,8.179 1.066,8.179 C0.040,8.279 -0.374,9.574 0.395,10.272 C0.395,10.272 5.258,14.836 5.258,14.836 C5.593,15.135 5.731,15.573 5.632,16.012 C5.632,16.012 4.401,22.512 4.401,22.512 C4.164,23.528 5.249,24.366 6.157,23.827 C6.157,23.827 11.898,20.542 11.898,20.542 C12.273,20.323 12.727,20.323 13.102,20.542 C13.102,20.542 18.843,23.827 18.843,23.827 C19.751,24.366 20.836,23.548 20.599,22.512 C20.599,22.512 19.346,15.971 19.346,15.971 C19.247,15.532 19.386,15.093 19.721,14.794 C19.721,14.794 24.624,10.272 24.624,10.272 C25.374,9.574 24.940,8.279 23.914,8.179 Z" />
</svg>
