<svg xmlns="http://www.w3.org/2000/svg" xmlns:xlink="http://www.w3.org/1999/xlink" preserveAspectRatio="xMidYMid" width="150" height="150" viewBox="0 0 150 150"><path fill="#FFF" d="M139.949,37.502 C119.244,1.630 73.368,-10.662 37.500,10.053 C1.628,30.760 -10.664,76.630 10.051,112.500 C30.758,148.370 76.628,160.664 112.498,139.951 C148.368,119.238 160.666,73.370 139.949,37.502 ZM104.998,126.958 C76.305,143.529 39.607,133.696 23.040,105.000 C6.469,76.304 16.305,39.606 45.000,23.042 C73.694,6.471 110.393,16.304 126.960,45.002 C143.527,73.698 133.694,110.391 104.998,126.958 ZM102.003,71.953 C102.003,71.953 62.726,49.048 62.726,49.048 C59.148,46.959 56.261,48.629 56.281,52.769 C56.281,52.769 56.483,98.232 56.483,98.232 C56.501,102.371 59.423,104.055 63.012,101.982 C63.012,101.982 101.988,79.482 101.988,79.482 C105.569,77.414 105.577,74.042 102.003,71.953 Z"/>
</svg>
