<svg width="44" height="44" viewBox="0 0 44 44" fill="none" xmlns="http://www.w3.org/2000/svg">
<path d="M10 1H34C38.9706 1 43 5.02944 43 10V34C43 38.9706 38.9706 43 34 43H10C5.02944 43 1 38.9706 1 34V10C1 5.02944 5.02944 1 10 1Z" stroke="#666666" stroke-width="2"/>
<path d="M31.8438 19.1562L29.1094 16.5312L32.5 13.1406L30.8594 11.5L27.4688 14.8906L24.8438 12.1562V19.1562H31.8438ZM14.8906 27.4688L12.1562 24.8438H19.1562V31.8438L16.5312 29.1094L13.1406 32.5L11.5 30.8594L14.8906 27.4688ZM27.4688 29.1094L24.8438 31.8438V24.8438H31.8438L29.1094 27.4688L32.5 30.8594L30.8594 32.5L27.4688 29.1094ZM16.5312 14.8906L19.1562 12.1562V19.1562H12.1562L14.8906 16.5312L11.5 13.1406L13.1406 11.5L16.5312 14.8906Z" fill="#666666"/>
</svg>
