<svg width="45" height="44" viewBox="0 0 45 44" fill="none" xmlns="http://www.w3.org/2000/svg">
<path d="M10.5 1H34.5C39.4706 1 43.5 5.02944 43.5 10V34C43.5 38.9706 39.4706 43 34.5 43H10.5C5.52944 43 1.5 38.9706 1.5 34V10C1.5 5.02944 5.52944 1 10.5 1Z" stroke="#666666" stroke-width="2"/>
<path d="M14.2969 11.5H30.7031C31.2865 11.5 31.7969 11.7552 32.2344 12.2656C32.7448 12.7031 33 13.2135 33 13.7969V30.2031C33 30.7865 32.7448 31.3333 32.2344 31.8438C31.7969 32.2812 31.2865 32.5 30.7031 32.5H14.2969C13.6406 32.5 13.0938 32.2812 12.6562 31.8438C12.2188 31.3333 12 30.7865 12 30.2031V13.7969C12 13.2135 12.2188 12.7031 12.6562 12.2656C13.0938 11.7552 13.6406 11.5 14.2969 11.5ZM20.8594 19.7031V23.2031H24.1406V19.7031H27.2031L22.5 15L17.7969 19.7031H20.8594ZM30.7031 30.2031V26.7031H26.5469C26.1094 27.3594 25.526 27.9062 24.7969 28.3438C24.1406 28.7812 23.375 29 22.5 29C21.625 29 20.8229 28.7812 20.0938 28.3438C19.4375 27.9062 18.8906 27.3594 18.4531 26.7031H14.2969V30.2031H30.7031ZM24.7969 24.2969H30.7031V13.7969H14.2969V24.2969H20.2031C20.2031 24.9531 20.4219 25.5365 20.8594 26.0469C21.2969 26.4844 21.8438 26.7031 22.5 26.7031C23.1562 26.7031 23.7031 26.4844 24.1406 26.0469C24.5781 25.5365 24.7969 24.9531 24.7969 24.2969Z" fill="#666666"/>
</svg>
