<svg width="44" height="44" viewBox="0 0 44 44" fill="none" xmlns="http://www.w3.org/2000/svg">
<path d="M10 1H34C38.9706 1 43 5.02944 43 10V34C43 38.9706 38.9706 43 34 43H10C5.02944 43 1 38.9706 1 34V10C1 5.02944 5.02944 1 10 1Z" stroke="#666666" stroke-width="2"/>
<path d="M22.0547 15H31.3516C32.0078 15 32.5547 15.2552 32.9922 15.7656C33.4297 16.2031 33.6484 16.7135 33.6484 17.2969V29C33.6484 29.6562 33.4297 30.2031 32.9922 30.6406C32.5547 31.0781 32.0078 31.2969 31.3516 31.2969H12.6484C12.0651 31.2969 11.5182 31.0781 11.0078 30.6406C10.5703 30.2031 10.3516 29.6562 10.3516 29V15C10.3516 14.3438 10.5703 13.7969 11.0078 13.3594C11.5182 12.9219 12.0651 12.7031 12.6484 12.7031H19.6484L22.0547 15ZM12.6484 17.2969V29H31.3516V17.2969H12.6484Z" fill="#666666"/>
</svg>
