<svg width="45" height="44" viewBox="0 0 45 44" fill="none" xmlns="http://www.w3.org/2000/svg">
<path d="M10.5 1H34.5C39.4706 1 43.5 5.02944 43.5 10V34C43.5 38.9706 39.4706 43 34.5 43H10.5C5.52944 43 1.5 38.9706 1.5 34V10C1.5 5.02944 5.52944 1 10.5 1Z" stroke="#666666" stroke-width="2"/>
<path d="M31.7422 13.25C31.1589 12.8854 30.6849 12.6667 30.3203 12.5938C29.737 12.375 29.0807 12.2656 28.3516 12.2656C27.6224 12.2656 26.9661 12.375 26.3828 12.5938C26.0182 12.6667 25.5443 12.8854 24.9609 13.25H24.8516C24.3411 13.4688 23.9401 13.651 23.6484 13.7969C23.3568 13.8698 22.9557 13.9062 22.4453 13.9062C22.0078 13.9062 21.6068 13.8698 21.2422 13.7969C20.9505 13.651 20.5859 13.4688 20.1484 13.25L20.0391 13.1406C19.4557 12.849 18.9818 12.6667 18.6172 12.5938C18.0339 12.375 17.3776 12.2656 16.6484 12.2656C15.9922 12.2656 15.3359 12.375 14.6797 12.5938C14.3151 12.6667 13.8411 12.849 13.2578 13.1406V13.25C12.7474 13.4688 12.3828 13.6146 12.1641 13.6875C11.7266 13.8333 11.2891 13.9062 10.8516 13.9062V16.2031C11.5078 16.2031 12.1641 16.0938 12.8203 15.875C13.1849 15.7292 13.6589 15.5104 14.2422 15.2188H14.3516C14.7891 15 15.1536 14.8177 15.4453 14.6719C15.8099 14.599 16.2109 14.5625 16.6484 14.5625C17.1589 14.5625 17.5599 14.6354 17.8516 14.7812C18.2161 14.8542 18.6172 15 19.0547 15.2188C19.7109 15.5104 20.2214 15.7292 20.5859 15.875C21.1693 16.0938 21.7891 16.2031 22.4453 16.2031C23.1745 16.2031 23.8307 16.0938 24.4141 15.875C24.7786 15.7292 25.2526 15.5104 25.8359 15.2188H26.0547C26.4922 14.9271 26.8568 14.7448 27.1484 14.6719C27.513 14.599 27.9141 14.5625 28.3516 14.5625C28.862 14.5625 29.263 14.6354 29.5547 14.7812C29.9193 14.8542 30.3568 15.0365 30.8672 15.3281C31.3776 15.5469 31.8151 15.7292 32.1797 15.875C32.8359 16.0938 33.4922 16.2031 34.1484 16.2031V13.9062C33.7109 13.9062 33.3099 13.8698 32.9453 13.7969C32.6536 13.651 32.2526 13.4688 31.7422 13.25ZM24.9609 23.5312C25.5443 23.2396 26.0182 23.0208 26.3828 22.875C27.0391 22.7292 27.6953 22.6562 28.3516 22.6562C29.0807 22.6562 29.737 22.7656 30.3203 22.9844C30.6849 23.0573 31.1224 23.2396 31.6328 23.5312C32.2161 23.8229 32.6536 24.0417 32.9453 24.1875C33.3099 24.2604 33.7109 24.2969 34.1484 24.2969V26.4844C33.4922 26.4844 32.8359 26.4115 32.1797 26.2656C31.8151 26.1198 31.3776 25.9375 30.8672 25.7188C30.3568 25.4271 29.9193 25.2448 29.5547 25.1719C29.263 25.026 28.862 24.9531 28.3516 24.9531C27.8411 24.9531 27.4036 25.026 27.0391 25.1719C26.7474 25.2448 26.3828 25.3906 25.9453 25.6094H25.8359C25.2526 25.901 24.7786 26.1198 24.4141 26.2656C23.8307 26.4115 23.1745 26.4844 22.4453 26.4844C21.7891 26.4844 21.1693 26.4115 20.5859 26.2656C20.2214 26.1198 19.7109 25.901 19.0547 25.6094C18.6172 25.3906 18.2161 25.2448 17.8516 25.1719C17.5599 25.026 17.1589 24.9531 16.6484 24.9531C16.2109 24.9531 15.8099 25.026 15.4453 25.1719C15.1536 25.2448 14.7526 25.3906 14.2422 25.6094C13.6589 25.901 13.1849 26.1198 12.8203 26.2656C12.1641 26.4115 11.5078 26.4844 10.8516 26.4844V24.2969C11.2891 24.2969 11.6536 24.2604 11.9453 24.1875C12.3099 24.0417 12.7109 23.8594 13.1484 23.6406L13.3672 23.5312C13.9505 23.2396 14.4245 23.0208 14.7891 22.875C15.3724 22.7292 15.9922 22.6562 16.6484 22.6562C17.3776 22.6562 18.0339 22.7292 18.6172 22.875C18.9818 23.0208 19.4922 23.2396 20.1484 23.5312C20.5859 23.8229 20.9505 24.0417 21.2422 24.1875C21.6068 24.2604 22.0078 24.2969 22.4453 24.2969C22.9557 24.2969 23.3568 24.2604 23.6484 24.1875C23.9401 24.0417 24.3411 23.8594 24.8516 23.6406L24.9609 23.5312ZM24.9609 28.7812C25.5443 28.4896 26.0182 28.2708 26.3828 28.125C26.9661 27.9062 27.6224 27.7969 28.3516 27.7969C29.0807 27.7969 29.737 27.9062 30.3203 28.125C30.6849 28.2708 31.1224 28.4896 31.6328 28.7812C32.2161 29 32.6536 29.1823 32.9453 29.3281C33.3099 29.401 33.7109 29.4375 34.1484 29.4375V31.7344C33.4922 31.7344 32.8359 31.625 32.1797 31.4062C31.8151 31.3333 31.3776 31.151 30.8672 30.8594C30.3568 30.5677 29.9193 30.3854 29.5547 30.3125C29.263 30.1667 28.862 30.0938 28.3516 30.0938C27.9141 30.0938 27.4766 30.1667 27.0391 30.3125C26.8203 30.3854 26.4557 30.5312 25.9453 30.75V30.8594C25.362 31.151 24.888 31.3333 24.5234 31.4062C23.8672 31.625 23.1745 31.7344 22.4453 31.7344C21.7891 31.7344 21.1693 31.625 20.5859 31.4062C20.2214 31.3333 19.7109 31.151 19.0547 30.8594V30.75C18.6172 30.5312 18.2161 30.3854 17.8516 30.3125C17.5599 30.1667 17.1589 30.0938 16.6484 30.0938C16.2109 30.0938 15.8099 30.1667 15.4453 30.3125C15.1536 30.3854 14.7891 30.5312 14.3516 30.75H14.2422C13.6589 31.1146 13.1849 31.3333 12.8203 31.4062C12.237 31.625 11.5807 31.7344 10.8516 31.7344V29.4375C11.2891 29.4375 11.7266 29.3646 12.1641 29.2188C12.3828 29.1458 12.7474 29 13.2578 28.7812C13.8411 28.4896 14.3151 28.2708 14.6797 28.125C15.3359 27.9062 15.9922 27.7969 16.6484 27.7969C17.3776 27.7969 18.0339 27.9062 18.6172 28.125C18.9818 28.2708 19.4922 28.4896 20.1484 28.7812C20.5859 29 20.9505 29.1823 21.2422 29.3281C21.6068 29.401 22.0078 29.4375 22.4453 29.4375C22.9557 29.4375 23.3932 29.3646 23.7578 29.2188C24.0495 29.1458 24.4141 29 24.8516 28.7812H24.9609ZM24.9609 18.3906C25.5443 18.099 26.0182 17.8802 26.3828 17.7344C27.0391 17.5156 27.6953 17.4062 28.3516 17.4062C29.0807 17.4062 29.737 17.5156 30.3203 17.7344C30.6849 17.8802 31.1224 18.099 31.6328 18.3906C32.2161 18.6094 32.6536 18.7917 32.9453 18.9375C33.3099 19.0104 33.7109 19.0469 34.1484 19.0469V21.3438C33.4922 21.3438 32.8359 21.2344 32.1797 21.0156C31.8151 20.9427 31.3776 20.7604 30.8672 20.4688C30.3568 20.1771 29.9193 19.9948 29.5547 19.9219C29.263 19.776 28.862 19.7031 28.3516 19.7031C27.9141 19.7031 27.513 19.776 27.1484 19.9219C26.8568 19.9948 26.4922 20.1406 26.0547 20.3594L25.8359 20.4688C25.2526 20.7604 24.7786 20.9427 24.4141 21.0156C23.8307 21.2344 23.1745 21.3438 22.4453 21.3438C21.7891 21.3438 21.1693 21.2344 20.5859 21.0156C20.2214 20.9427 19.7109 20.7604 19.0547 20.4688V20.3594C18.6172 20.1406 18.2161 19.9948 17.8516 19.9219C17.5599 19.776 17.1589 19.7031 16.6484 19.7031C16.2109 19.7031 15.8464 19.776 15.5547 19.9219C15.263 19.9948 14.862 20.1406 14.3516 20.3594L14.2422 20.4688C13.6589 20.7604 13.1849 20.9427 12.8203 21.0156C12.1641 21.2344 11.5078 21.3438 10.8516 21.3438V19.0469C11.362 19.0469 11.763 19.0104 12.0547 18.9375C12.4193 18.7917 12.8203 18.6094 13.2578 18.3906L13.3672 18.2812C13.9505 17.9896 14.4245 17.8073 14.7891 17.7344C15.3724 17.5156 15.9922 17.4062 16.6484 17.4062C17.3776 17.4062 18.0339 17.5156 18.6172 17.7344C18.9818 17.8802 19.4922 18.099 20.1484 18.3906C20.5859 18.6094 20.9505 18.7917 21.2422 18.9375C21.6068 19.0104 22.0078 19.0469 22.4453 19.0469C22.9557 19.0469 23.3568 19.0104 23.6484 18.9375C24.013 18.7917 24.4505 18.6094 24.9609 18.3906Z" fill="#666666"/>
</svg>
